<svg data-v-0dd9719b="" version="1.0" xmlns="http://www.w3.org/2000/svg" xmlns:xlink="http://www.w3.org/1999/xlink" width="100%" height="100%" viewBox="0 0 340.000000 250.000000" preserveAspectRatio="xMidYMid meet" color-interpolation-filters="sRGB" style="margin: auto;"> <rect data-v-0dd9719b="" x="0" y="0" width="100%" height="100%" fill="#fff" fill-opacity="1" class="background"></rect> <rect data-v-0dd9719b="" x="0" y="0" width="100%" height="100%" fill="url(#watermark)" fill-opacity="1" class="watermarklayer"></rect> <g data-v-0dd9719b="" fill="#333333" class="icon-text-wrapper icon-svg-group iconsvg" transform="translate(79.3499984741211,77.44848251342773)"><g class="iconsvg-imagesvg" transform="translate(60.650001525878906,0)"><g><rect fill="#333333" fill-opacity="0" stroke-width="2" x="0" y="0" width="60" height="59.03303882406186" class="image-rect"></rect> <svg x="0" y="0" width="60" height="59.03303882406186" filtersec="colorsb945956420" class="image-svg-svg primary" style="overflow: visible;"><svg xmlns="http://www.w3.org/2000/svg" viewBox="0 0 179.8202362060547 176.9217071533203"><g><g><path d="M113.93 0A77.35 77.35 0 1 1 0 95.58a90.16 90.16 0 0 0 81.86 81A90.12 90.12 0 0 0 113.93 0z" fill="#b0bec5"></path><path d="M145.44 26.45a.67.67 0 1 1-.66.67.66.66 0 0 1 .66-.67zM130.05 8.77a1.57 1.57 0 1 1-1.56 1.56 1.56 1.56 0 0 1 1.56-1.56zM137 11.77a1.76 1.76 0 1 1-1.76 1.76 1.75 1.75 0 0 1 1.76-1.76z" fill="#eceff1" fill-rule="evenodd"></path><circle cx="139" cy="20.64" r="2.14" transform="rotate(-89.82 138.996 20.65)" fill="#eceff1"></circle><path d="M146.57 18.57a1.57 1.57 0 1 1-1.57 1.57 1.57 1.57 0 0 1 1.57-1.57zM143 17.29a.66.66 0 1 1-.66.66.66.66 0 0 1 .66-.66zM135.53 16a.67.67 0 1 1-.67.66.67.67 0 0 1 .67-.66zM126.71 6.05a.66.66 0 0 1 0 1.32.66.66 0 1 1 0-1.32zM151.45 24.24a2.14 2.14 0 1 1-2.14 2.14 2.14 2.14 0 0 1 2.14-2.14zM146.1 30.71a1.56 1.56 0 1 1-1.56 1.56 1.56 1.56 0 0 1 1.56-1.56zM156.68 32.27a.66.66 0 1 1-.66.66.66.66 0 0 1 .66-.66zM149.85 37.62a2.15 2.15 0 1 1-2.14 2.14 2.14 2.14 0 0 1 2.14-2.14zM162.65 39.76a1.57 1.57 0 1 1-1.56 1.57 1.57 1.57 0 0 1 1.56-1.57zM156.68 39.76a.66.66 0 1 1-.66.66.66.66 0 0 1 .66-.66zM153.6 45.69a1.57 1.57 0 1 1-1.6 1.56 1.56 1.56 0 0 1 1.6-1.56zM167 51a2.15 2.15 0 1 1-2.15 2.14A2.14 2.14 0 0 1 167 51zM152.94 54.75a.66.66 0 1 1 0 1.32.66.66 0 1 1 0-1.32zM160.3 54.54a1.56 1.56 0 1 1-1.56 1.56 1.56 1.56 0 0 1 1.56-1.56zM162.65 47.87a1.57 1.57 0 1 1-1.56 1.57 1.57 1.57 0 0 1 1.56-1.57zM155.16 62.24a1.57 1.57 0 1 1-1.56 1.56 1.56 1.56 0 0 1 1.56-1.56zM170.72 62.24a2.15 2.15 0 1 1-2.14 2.14 2.14 2.14 0 0 1 2.14-2.14zM163.27 66a1.56 1.56 0 1 1-1.56 1.56 1.56 1.56 0 0 1 1.56-1.56zM161.75 62.24a.66.66 0 1 1 0 1.32.66.66 0 1 1 0-1.32zM153.6 71.34a2.14 2.14 0 1 1-2.15 2.14 2.14 2.14 0 0 1 2.15-2.14zM173.89 73.48a1.57 1.57 0 1 1-1.56 1.52 1.56 1.56 0 0 1 1.56-1.52zM162.65 77.22a1.57 1.57 0 1 1-1.56 1.57 1.57 1.57 0 0 1 1.56-1.57zM164.17 73.48a.66.66 0 0 1 0 1.32.66.66 0 1 1 0-1.32zM152 80.43a2.15 2.15 0 1 1-2.14 2.15 2.15 2.15 0 0 1 2.14-2.15zM153.6 86.9a1.57 1.57 0 1 1-1.6 1.56 1.56 1.56 0 0 1 1.6-1.56zM163.27 85.34a1.56 1.56 0 1 1-1.56 1.56 1.56 1.56 0 0 1 1.56-1.56zM173.93 79.37a2.14 2.14 0 1 1-2.14 2.14 2.14 2.14 0 0 1 2.14-2.14zM170.15 84.72a1.56 1.56 0 1 1-1.57 1.56 1.56 1.56 0 0 1 1.57-1.56zM167.92 80.31a.66.66 0 1 1-.66.66.66.66 0 0 1 .66-.66zM158 83.4a.66.66 0 1 1-.66.66.66.66 0 0 1 .66-.66zM19.76 130.33a.66.66 0 1 0 1.29.28.65.65 0 0 0-.51-.78.66.66 0 0 0-.78.5zM5.72 111.56a1.57 1.57 0 1 0 1.86-1.2 1.55 1.55 0 0 0-1.86 1.2zM7.18 119a1.75 1.75 0 1 0 2.09-1.35A1.76 1.76 0 0 0 7.18 119zM13.34 122.36a2.14 2.14 0 1 0 2.55-1.65 2.14 2.14 0 0 0-2.55 1.65zM11.82 129.78a1.56 1.56 0 1 0 1.85-1.2 1.55 1.55 0 0 0-1.85 1.2zM11.31 126a.65.65 0 0 0 .5.78.66.66 0 1 0 .28-1.29.66.66 0 0 0-.78.51zM11.59 118.43a.66.66 0 1 0 .79-.51.67.67 0 0 0-.79.51zM3.76 107.72a.66.66 0 0 0 1.29.28.66.66 0 1 0-1.29-.28zM16.32 135.74a2.14 2.14 0 1 0 2.55-1.64 2.15 2.15 0 0 0-2.55 1.64zM23.77 131.88a1.57 1.57 0 1 0 1.86-1.2 1.56 1.56 0 0 0-1.86 1.2zM23.07 142.55a.66.66 0 1 0 .79-.51.66.66 0 0 0-.79.51zM29.74 137a2.14 2.14 0 1 0 2.55-1.65 2.14 2.14 0 0 0-2.55 1.65zM29.13 150a1.57 1.57 0 1 0 1.86-1.2 1.57 1.57 0 0 0-1.86 1.2zM30.39 144.13a.66.66 0 0 0 1.3.28.67.67 0 0 0-.51-.79.66.66 0 0 0-.79.51zM36.84 142.36a1.57 1.57 0 1 0 1.86-1.2 1.57 1.57 0 0 0-1.86 1.2zM39.21 156.56a2.14 2.14 0 1 0 2.54-1.64 2.14 2.14 0 0 0-2.54 1.64zM45.83 143.63a.66.66 0 1 0 .79-.51.67.67 0 0 0-.79.51zM44.07 150.78a1.57 1.57 0 0 0 3.06.66 1.57 1.57 0 1 0-3.06-.66zM37.06 151.67a1.57 1.57 0 1 0 1.86-1.19 1.57 1.57 0 0 0-1.86 1.19zM52.69 147.38a1.56 1.56 0 1 0 1.86-1.2 1.55 1.55 0 0 0-1.86 1.2zM49.4 162.6A2.14 2.14 0 1 0 52 161a2.14 2.14 0 0 0-2.6 1.6zM54.64 156.1a1.56 1.56 0 1 0 1.86-1.2 1.56 1.56 0 0 0-1.86 1.2zM51.3 153.82a.66.66 0 1 0 1.29.28.66.66 0 0 0-1.29-.28zM61.91 147.77a2.14 2.14 0 1 0 2.54-1.64 2.14 2.14 0 0 0-2.54 1.64zM59.72 168.06a1.57 1.57 0 0 0 3.06.66 1.57 1.57 0 1 0-3.06-.66zM65.75 157.87a1.57 1.57 0 0 0 3.06.66 1.57 1.57 0 1 0-3.06-.66zM61.77 158.56a.66.66 0 0 0 .51.79.66.66 0 0 0 .28-1.29.66.66 0 0 0-.79.5zM71.14 148.12a2.14 2.14 0 1 0 2.54-1.64 2.14 2.14 0 0 0-2.54 1.64zM77.12 151.06a1.57 1.57 0 1 0 1.86-1.2 1.58 1.58 0 0 0-1.86 1.2zM73.55 160.18a1.57 1.57 0 1 0 1.86-1.18 1.57 1.57 0 0 0-1.86 1.18zM65.47 169.34A2.14 2.14 0 1 0 68 167.7a2.14 2.14 0 0 0-2.53 1.64zM71.5 166.77a1.56 1.56 0 1 0 1.85-1.2 1.55 1.55 0 0 0-1.85 1.2zM67.66 163.67a.65.65 0 0 0 .5.78.66.66 0 1 0 .28-1.29.65.65 0 0 0-.78.51zM72.77 154.63a.66.66 0 1 0 .78-.51.65.65 0 0 0-.78.51zM84.21 147a2.14 2.14 0 1 0 2.54-1.64 2.14 2.14 0 0 0-2.54 1.64zM82 167.29a1.57 1.57 0 1 0 1.86-1.2 1.56 1.56 0 0 0-1.86 1.2zM88.05 157.09a1.57 1.57 0 1 0 1.86-1.19 1.57 1.57 0 0 0-1.86 1.19zM84.07 157.79a.66.66 0 1 0 .78-.51.66.66 0 0 0-.78.51zM93.44 147.35a2.14 2.14 0 1 0 2.56-1.64 2.14 2.14 0 0 0-2.56 1.64zM99.42 150.28a1.57 1.57 0 1 0 1.86-1.19 1.56 1.56 0 0 0-1.86 1.19zM95.85 159.41a1.57 1.57 0 1 0 1.86-1.2 1.56 1.56 0 0 0-1.86 1.2zM87.77 168.57a2.14 2.14 0 1 0 2.54-1.64 2.14 2.14 0 0 0-2.54 1.64zM93.79 166a1.57 1.57 0 1 0 1.86-1.2 1.57 1.57 0 0 0-1.86 1.2zM90 162.89a.66.66 0 1 0 1.29.28.66.66 0 0 0-1.29-.28zM95.06 153.85a.67.67 0 0 0 .51.79.66.66 0 0 0 .79-.51.66.66 0 0 0-.51-.78.66.66 0 0 0-.79.5zM105.48 141.4a2.14 2.14 0 1 0 2.55-1.65 2.15 2.15 0 0 0-2.55 1.65zM103.3 161.69a1.56 1.56 0 1 0 1.86-1.2 1.55 1.55 0 0 0-1.86 1.2zM109.33 151.49a1.57 1.57 0 1 0 1.86-1.2 1.57 1.57 0 0 0-1.86 1.2zM105.35 152.19a.65.65 0 0 0 .5.78.66.66 0 1 0 .28-1.29.65.65 0 0 0-.78.51zM114.71 141.75a2.14 2.14 0 1 0 2.55-1.65 2.15 2.15 0 0 0-2.55 1.65zM120.7 144.68a1.57 1.57 0 1 0 1.86-1.2 1.56 1.56 0 0 0-1.86 1.2zM117.13 153.81a1.57 1.57 0 1 0 1.86-1.2 1.55 1.55 0 0 0-1.86 1.2zM109.05 163a2.14 2.14 0 1 0 2.54-1.65 2.14 2.14 0 0 0-2.54 1.65zM115.07 160.39a1.57 1.57 0 1 0 1.86-1.19 1.57 1.57 0 0 0-1.86 1.19zM111.23 157.29a.66.66 0 1 0 .79-.51.67.67 0 0 0-.79.51zM116.34 148.25a.66.66 0 0 0 1.3.28.67.67 0 0 0-.51-.79.66.66 0 0 0-.79.51zM128 130.16a2.14 2.14 0 1 0 2.55-1.65 2.14 2.14 0 0 0-2.55 1.65zM125.77 150.45a1.57 1.57 0 1 0 1.86-1.2 1.56 1.56 0 0 0-1.86 1.2zM131.81 140.25a1.56 1.56 0 1 0 1.86-1.2 1.56 1.56 0 0 0-1.86 1.2zM127.83 141a.65.65 0 0 0 .5.78.66.66 0 1 0 .28-1.29.65.65 0 0 0-.78.51zM137.19 130.51a2.14 2.14 0 1 0 2.55-1.64 2.14 2.14 0 0 0-2.55 1.64zM143.18 133.44a1.56 1.56 0 1 0 1.85-1.2 1.56 1.56 0 0 0-1.85 1.2zM139.61 142.57a1.56 1.56 0 1 0 1.85-1.2 1.56 1.56 0 0 0-1.85 1.2zM131.52 151.73a2.14 2.14 0 1 0 2.55-1.64 2.14 2.14 0 0 0-2.55 1.64zM137.55 149.16a1.57 1.57 0 1 0 1.86-1.2 1.56 1.56 0 0 0-1.86 1.2zM133.71 146.05a.67.67 0 0 0 .51.79.66.66 0 0 0 .78-.51.66.66 0 1 0-1.29-.28zM138.82 137a.66.66 0 0 0 1.29.28.66.66 0 1 0-1.29-.28zM155.71 95.21a2.14 2.14 0 1 0 2.55-1.65 2.15 2.15 0 0 0-2.55 1.65zM153.53 115.5a1.56 1.56 0 1 0 1.86-1.2 1.56 1.56 0 0 0-1.86 1.2zM159.56 105.3a1.57 1.57 0 1 0 3.06.66 1.57 1.57 0 1 0-3.06-.66zM155.58 106a.65.65 0 0 0 .5.78.66.66 0 1 0 .28-1.29.65.65 0 0 0-.78.51zM164.94 95.56a2.14 2.14 0 1 0 2.55-1.64 2.15 2.15 0 0 0-2.55 1.64zM170.93 98.49a1.57 1.57 0 1 0 1.86-1.2 1.56 1.56 0 0 0-1.86 1.2zM167.36 107.62a1.57 1.57 0 1 0 1.86-1.2 1.57 1.57 0 0 0-1.86 1.2zM159.27 116.78a2.14 2.14 0 1 0 2.55-1.64 2.15 2.15 0 0 0-2.55 1.64zM165.3 114.21a1.57 1.57 0 1 0 1.86-1.2 1.56 1.56 0 0 0-1.86 1.2zM161.46 111.1a.66.66 0 1 0 .79-.51.68.68 0 0 0-.79.51zM166.57 102.06a.66.66 0 1 0 .79-.51.67.67 0 0 0-.79.51zM145.61 105.14a2.14 2.14 0 1 0 2.55-1.64 2.15 2.15 0 0 0-2.55 1.64zM138.12 112.63a2.14 2.14 0 1 0 2.55-1.64 2.14 2.14 0 0 0-2.55 1.64zM146.76 119.67a1.56 1.56 0 1 0 3.05.66 1.56 1.56 0 1 0-3.05-.66zM153.65 130.82a2.14 2.14 0 1 0 2.54-1.64 2.14 2.14 0 0 0-2.54 1.64zM131.15 120.29a1.57 1.57 0 1 0 1.86-1.2 1.56 1.56 0 0 0-1.86 1.2zM121.25 129.06a1.57 1.57 0 1 0 1.86-1.2 1.57 1.57 0 0 0-1.86 1.2zM114.61 133.09a1.56 1.56 0 1 0 1.85-1.2 1.56 1.56 0 0 0-1.85 1.2zM97.45 142.06a2.14 2.14 0 1 0 2.55-1.64 2.15 2.15 0 0 0-2.55 1.64zM148.32 140.58a1.57 1.57 0 1 0 1.86-1.2 1.57 1.57 0 0 0-1.86 1.2zM161.74 124a1.57 1.57 0 1 0 1.86-1.2 1.57 1.57 0 0 0-1.86 1.2zM145.61 127.08a2.14 2.14 0 1 0 2.55-1.65 2.14 2.14 0 0 0-2.55 1.65zM141.05 122.7a.66.66 0 1 0 1.29.28.65.65 0 0 0-.5-.78.66.66 0 0 0-.79.5z" fill="#eceff1" fill-rule="evenodd"></path><path fill="#ff8f00" fill-rule="evenodd" d="M81.5 28.05l4.17 14.71 15.21 4.66-14.71 4.17L81.5 66.8l-4.16-14.71-15.21-4.67 14.71-4.16 4.66-15.21zM52.64 84.82l3.17 11.23 11.62 3.57-11.23 3.17-3.56 11.62-3.18-11.23-11.62-3.56 11.23-3.18 3.57-11.62zM105.08 81.35l1.57 5.54 5.74 1.76-5.55 1.57-1.76 5.74-1.56-5.55-5.74-1.76 5.55-1.56 1.75-5.74z"></path></g></g></svg></svg> <!----></g></g> <g transform="translate(0,66.03303909301758)"><g data-gra="path-name" fill-rule="" class="tp-name iconsvg-namesvg"><g transform="scale(1)"><g><path d="M4.39-20.81L4.39-20.81 9.39-20.81Q17.54-20.81 17.54-14.28L17.54-14.28Q17.54-10.87 15.3-9.13 13.07-7.38 9.5-7.38L9.5-7.38 6.73-7.38 6.73-2.09Q6.73 0 4.64 0 2.55 0 2.55-2.09L2.55-2.09 2.55-18.97Q2.55-19.79 3.06-20.3 3.57-20.81 4.39-20.81ZM9.09-17.51L6.73-17.51 6.73-10.68 9.22-10.68Q13.45-10.68 13.45-14.28L13.45-14.28Q13.45-16.03 12.38-16.77 11.31-17.51 9.09-17.51L9.09-17.51ZM32.86-6.73L32.86-6.73 23.99-6.73Q24.24-4.83 25.41-3.8 26.57-2.77 28.36-2.77L28.36-2.77Q29.4-2.77 30.56-3.21L30.56-3.21Q31.93-3.9 32.64-2.55L32.64-2.55Q33.27-1.32 32.17-0.69L32.17-0.69Q30.09 0.38 27.81 0.38L27.81 0.38Q24.43 0.38 22.21-1.84 19.99-4.06 19.99-7.85L19.99-7.85Q19.99-11.53 22.17-13.84 24.35-16.14 27.32-16.14L27.32-16.14Q30.47-16.14 32.19-14.06 33.9-11.97 33.9-8.59L33.9-8.59Q33.9-8.07 33.85-7.41L33.85-7.41Q33.79-7.14 33.51-6.93 33.22-6.73 32.86-6.73ZM23.94-9.44L23.94-9.44 30.36-9.44Q30.36-11.09 29.61-12.01 28.85-12.93 27.37-12.93L27.37-12.93Q26.08-12.93 25.12-12.02 24.16-11.12 23.94-9.44ZM37.28-2.06L37.28-2.06 37.28-14.06Q37.28-15.73 39.04-15.73L39.04-15.73Q40.66-15.73 40.85-14.22L40.85-14.22 40.93-13.67 41.04-13.67Q43.57-16.14 46.15-16.14L46.15-16.14Q51.03-16.14 51.03-9.8L51.03-9.8 51.03-2.06Q51.03 0 48.98 0L48.98 0Q46.89 0 46.89-2.06L46.89-2.06 46.89-9.31Q46.89-11.09 46.37-11.85 45.85-12.6 44.67-12.6L44.67-12.6Q43.76-12.6 43.06-12.19 42.36-11.78 41.37-10.82L41.37-10.82 41.37-2.06Q41.37 0 39.34 0L39.34 0Q37.28 0 37.28-2.06ZM55.29-2.06L55.29-2.06 55.29-14.06Q55.29-15.73 57.05-15.73L57.05-15.73Q58.67-15.73 58.86-14.22L58.86-14.22 58.94-13.67 59.05-13.67Q61.58-16.14 64.16-16.14L64.16-16.14Q69.04-16.14 69.04-9.8L69.04-9.8 69.04-2.06Q69.04 0 66.98 0L66.98 0Q64.9 0 64.9-2.06L64.9-2.06 64.9-9.31Q64.9-11.09 64.38-11.85 63.86-12.6 62.67-12.6L62.67-12.6Q61.77-12.6 61.07-12.19 60.37-11.78 59.38-10.82L59.38-10.82 59.38-2.06Q59.38 0 57.35 0L57.35 0Q55.29 0 55.29-2.06ZM84.06-4.58L84.06-4.58Q84.06-2.22 82.3-0.92 80.55 0.38 77.8 0.38L77.8 0.38Q75.33 0.38 73.05-0.96L73.05-0.96Q71.79-1.84 72.7-3.07L72.7-3.07Q73.71-4.42 75.19-3.43L75.19-3.43Q76.62-2.69 77.91-2.69L77.91-2.69Q79.04-2.69 79.61-3.14 80.19-3.6 80.19-4.37L80.19-4.37Q80.19-4.56 80.13-4.74 80.08-4.91 79.96-5.07 79.83-5.22 79.71-5.34 79.59-5.46 79.34-5.61 79.09-5.77 78.95-5.86 78.82-5.96 78.47-6.09 78.13-6.23 77.98-6.3 77.83-6.37 77.43-6.52 77.03-6.67 76.9-6.73L76.9-6.73Q76.02-7.06 75.36-7.41 74.7-7.77 74.01-8.32 73.33-8.87 72.96-9.62 72.59-10.38 72.59-11.31L72.59-11.31Q72.59-13.45 74.19-14.8 75.8-16.14 78.43-16.14L78.43-16.14Q80.66-16.14 82.63-14.99L82.63-14.99Q83.87-14.22 82.88-12.93L82.88-12.93Q81.97-11.72 80.57-12.55L80.57-12.55Q79.45-13.04 78.54-13.04L78.54-13.04Q76.48-13.04 76.48-11.53L76.48-11.53Q76.48-11.28 76.55-11.08 76.62-10.87 76.84-10.69 77.06-10.51 77.21-10.39 77.36-10.27 77.73-10.1 78.1-9.94 78.3-9.86 78.49-9.77 78.98-9.59 79.48-9.42 79.67-9.33L79.67-9.33Q80.63-8.95 81.26-8.63 81.89-8.32 82.62-7.77 83.35-7.22 83.7-6.42 84.06-5.63 84.06-4.58ZM99.96-13.51L99.96-13.51Q98.31-8.73 95.15 0.47L95.15 0.47Q94.05 3.43 92.56 4.87 91.06 6.31 88.56 6.31L88.56 6.31Q88.04 6.31 87.82 6.29L87.82 6.29Q86.39 6.01 86.86 4.15L86.86 4.15Q87 3.6 87.35 3.27 87.71 2.94 88.21 3.05L88.21 3.05 88.26 3.05Q90.43 3.05 91.2 0.66L91.2 0.66 91.5-0.27 86.31-13.31Q85.32-15.73 87.93-15.73L87.93-15.73Q89.52-15.73 90.05-14.19L90.05-14.19 92.02-8.43Q92.21-7.85 93.34-3.98L93.34-3.98 93.48-3.98Q93.64-4.72 94.03-6.2 94.41-7.69 94.6-8.43L94.6-8.43 96.33-14.19Q96.77-15.73 98.36-15.73L98.36-15.73Q100.72-15.73 99.96-13.51ZM107.4-20.37L107.4-20.37 107.4-4.23Q107.4-3.6 107.66-3.29 107.92-2.99 108.25-2.99L108.25-2.99 108.3-2.99Q108.52-3.02 108.71-2.75 108.91-2.47 108.96-2.2L108.96-2.2Q109.1-1.37 108.93-0.59 108.77 0.19 108.19 0.33L108.19 0.33Q107.59 0.38 107.18 0.38L107.18 0.38Q103.31 0.38 103.31-4.42L103.31-4.42 103.31-20.37Q103.31-22.43 105.36-22.43L105.36-22.43Q107.4-22.43 107.4-20.37ZM118.98 0L118.98 0 116.78 0Q115.69 0 115.33-1.04L115.33-1.04 111.13-13.34Q110.36-15.73 112.78-15.73L112.78-15.73Q114.51-15.73 114.95-14.11L114.95-14.11 116.78-7.91Q117-7.06 117.44-5.42 117.88-3.79 118.05-3.13L118.05-3.13 118.18-3.13Q118.35-3.76 119.45-7.91L119.45-7.91 121.31-14.19Q121.75-15.73 123.35-15.73L123.35-15.73Q125.71-15.73 124.97-13.51L124.97-13.51 120.93-1.4Q120.74-0.77 120.2-0.38 119.67 0 118.98 0ZM138.91 0L138.91 0Q137.24 0 137.02-1.67L137.02-1.67 136.93-1.67Q134.55 0.38 132.19 0.38L132.19 0.38Q130.1 0.38 128.81-0.93 127.52-2.25 127.52-4.28L127.52-4.28Q127.52-6.81 129.67-8.19 131.83-9.58 136.58-10.1L136.58-10.1Q136.47-12.82 133.92-12.82L133.92-12.82Q132.68-12.82 131.06-12.11L131.06-12.11Q129.55-11.34 128.81-12.74L128.81-12.74Q128.1-14.08 129.36-14.77L129.36-14.77Q131.97-16.14 134.66-16.14L134.66-16.14Q137.65-16.14 139.17-14.39 140.7-12.63 140.7-9.2L140.7-9.2 140.7-1.67Q140.7 0 138.91 0ZM132.6-6.42L132.6-6.42Q131.47-5.74 131.47-4.61L131.47-4.61Q131.47-2.83 133.53-2.83L133.53-2.83Q135.01-2.83 136.58-4.39L136.58-4.39 136.58-7.55Q134-7.22 132.6-6.42ZM144.92-2.06L144.92-2.06 144.92-14.06Q144.92-15.73 146.68-15.73L146.68-15.73Q148.3-15.73 148.49-14.22L148.49-14.22 148.57-13.67 148.68-13.67Q151.21-16.14 153.79-16.14L153.79-16.14Q158.68-16.14 158.68-9.8L158.68-9.8 158.68-2.06Q158.68 0 156.62 0L156.62 0Q154.53 0 154.53-2.06L154.53-2.06 154.53-9.31Q154.53-11.09 154.01-11.85 153.49-12.6 152.31-12.6L152.31-12.6Q151.4-12.6 150.7-12.19 150-11.78 149.01-10.82L149.01-10.82 149.01-2.06Q149.01 0 146.98 0L146.98 0Q144.92 0 144.92-2.06ZM167.02-13.7L167.02-13.7 167.02-2.06Q167.02 0 164.99 0L164.99 0Q162.93 0 162.93-2.06L162.93-2.06 162.93-13.7Q162.93-15.73 164.99-15.73L164.99-15.73Q167.02-15.73 167.02-13.7ZM162.55-20.53L162.55-20.53Q162.55-21.55 163.25-22.15 163.95-22.76 165.02-22.76 166.09-22.76 166.78-22.14 167.46-21.52 167.46-20.53L167.46-20.53Q167.46-19.57 166.76-18.93 166.06-18.28 165.02-18.28L165.02-18.28Q163.95-18.28 163.25-18.93 162.55-19.57 162.55-20.53ZM182.07 0L182.07 0Q180.39 0 180.17-1.67L180.17-1.67 180.09-1.67Q177.7 0.38 175.34 0.38L175.34 0.38Q173.25 0.38 171.96-0.93 170.67-2.25 170.67-4.28L170.67-4.28Q170.67-6.81 172.83-8.19 174.98-9.58 179.73-10.1L179.73-10.1Q179.62-12.82 177.07-12.82L177.07-12.82Q175.84-12.82 174.22-12.11L174.22-12.11Q172.71-11.34 171.96-12.74L171.96-12.74Q171.25-14.08 172.51-14.77L172.51-14.77Q175.12-16.14 177.81-16.14L177.81-16.14Q180.8-16.14 182.33-14.39 183.85-12.63 183.85-9.2L183.85-9.2 183.85-1.67Q183.85 0 182.07 0ZM175.75-6.42L175.75-6.42Q174.63-5.74 174.63-4.61L174.63-4.61Q174.63-2.83 176.69-2.83L176.69-2.83Q178.17-2.83 179.73-4.39L179.73-4.39 179.73-7.55Q177.15-7.22 175.75-6.42Z" transform="translate(-2.549999952316284, 22.760000228881836)"></path></g> <!----> <!----> <!----> <!----> <!----> <!----> <!----></g></g> <!----></g></g><defs v-gra="od"></defs></svg>